Coordinates
version=1
nRows=32
nColumns=12
inDegrees=yes

Units are S.I. units (second, meters, Newtons, ...)
Angles are in degrees

endheader
time	SC_y	SC_z	SC_x	AC_y	AC_z	AC_x	GH_y	GH_z	GH_yy	EL_x	PS_y
       0.0              -41.82          4.479          67.03          65.84         0.7736         -2.715         -3.117           62.6         -78.44          87.38          116.3
    0.0214              -41.82           4.48          67.02          65.84         0.7749         -2.715         -3.128           62.6         -78.42          87.38          116.3
    0.0428              -41.82          4.481          67.01          65.84         0.7763         -2.715         -3.139          62.59          -78.4          87.38          116.3
    0.0642              -41.81          4.482           67.0          65.84         0.7778         -2.715         -3.151          62.59         -78.38          87.37          116.3
   0.08561              -41.81          4.483          66.99          65.84         0.7794         -2.715         -3.164          62.59         -78.35          87.37          116.3
     0.107              -41.81          4.485          66.98          65.83         0.7811         -2.716         -3.177          62.58         -78.33          87.36          116.3
    0.1284               -41.8          4.486          66.97          65.83         0.7829         -2.716         -3.191          62.57          -78.3          87.36          116.3
    0.1498               -41.8          4.488          66.96          65.83         0.7849         -2.716         -3.207          62.57         -78.28          87.35          116.3
    0.1712               -41.8          4.489          66.94          65.83          0.787         -2.716         -3.223          62.56         -78.25          87.35          116.3
    0.1926              -41.79          4.491          66.93          65.83         0.7892         -2.717         -3.241          62.56         -78.21          87.34          116.3
     0.214              -41.79          4.493          66.91          65.82         0.7916         -2.717          -3.26          62.55         -78.18          87.34          116.3
    0.2354              -41.78          4.495           66.9          65.82         0.7942         -2.717          -3.28          62.54         -78.14          87.33          116.3
    0.2568              -41.78          4.497          66.88          65.82          0.797         -2.718         -3.302          62.53          -78.1          87.32          116.3
    0.2782              -41.77          4.499          66.86          65.82            0.8         -2.718         -3.326          62.52         -78.06          87.31          116.3
    0.2996              -41.76          4.501          66.84          65.81         0.8033         -2.719         -3.352          62.51         -78.01          87.31          116.3
     0.321              -41.76          4.504          66.82          65.81         0.8068         -2.719         -3.379           62.5         -77.96           87.3          116.3
    0.3424              -41.75          4.507          66.79          65.81         0.8107          -2.72          -3.41          62.49         -77.91          87.29          116.3
    0.3638              -41.74           4.51          66.76           65.8         0.8149          -2.72         -3.443          62.48         -77.85          87.28          116.3
    0.3852              -41.73          4.514          66.74           65.8         0.8194         -2.721         -3.479          62.47         -77.78          87.26          116.3
    0.4066              -41.72          4.517           66.7          65.79         0.8244         -2.722         -3.518          62.45         -77.71          87.25          116.3
     0.428              -41.71          4.521          66.67          65.79         0.8299         -2.722         -3.561          62.44         -77.63          87.24          116.3
    0.4494               -41.7          4.526          66.63          65.78          0.836         -2.723         -3.609          62.42         -77.55          87.22          116.3
    0.4708              -41.69          4.531          66.59          65.78         0.8427         -2.724         -3.662           62.4         -77.45           87.2          116.3
    0.4922              -41.67          4.537          66.54          65.77         0.8501         -2.725          -3.72          62.38         -77.35          87.18          116.3
    0.5136              -41.66          4.543          66.49          65.76         0.8583         -2.726         -3.785          62.35         -77.23          87.16          116.3
     0.535              -41.64           4.55          66.43          65.75         0.8675         -2.727         -3.857          62.33          -77.1          87.14          116.4
    0.5564              -41.62          4.558          66.37          65.74         0.8778         -2.729         -3.938          62.29         -76.95          87.11          116.4
    0.5778               -41.6          4.566          66.29          65.73         0.8893          -2.73          -4.03          62.26         -76.78          87.08          116.4
    0.5992              -41.57          4.576          66.21          65.72         0.9024         -2.732         -4.133          62.22          -76.6          87.05          116.4
    0.6206              -41.54          4.587          66.11          65.71         0.9173         -2.734          -4.25          62.18         -76.39          87.01          116.4
     0.642              -41.51            4.6          66.01          65.69         0.9342         -2.736         -4.383          62.13         -76.14          86.96          116.4
    0.6634              -41.47          4.615          65.88          65.67         0.9537         -2.739         -4.536          62.07         -75.87          86.91          116.4
